<svg id="visual" viewBox="0 0 900 600" width="900" height="600" xmlns="http://www.w3.org/2000/svg" xmlns:xlink="http://www.w3.org/1999/xlink" version="1.1"><rect x="0" y="0" width="900" height="600" fill="#140520"></rect><path d="M0 407L21.5 399.5C43 392 86 377 128.8 360.7C171.7 344.3 214.3 326.7 257.2 324.2C300 321.7 343 334.3 385.8 343.7C428.7 353 471.3 359 514.2 365.3C557 371.7 600 378.3 642.8 375.5C685.7 372.7 728.3 360.3 771.2 354.8C814 349.3 857 350.7 878.5 351.3L900 352L900 601L878.5 601C857 601 814 601 771.2 601C728.3 601 685.7 601 642.8 601C600 601 557 601 514.2 601C471.3 601 428.7 601 385.8 601C343 601 300 601 257.2 601C214.3 601 171.7 601 128.8 601C86 601 43 601 21.5 601L0 601Z" fill="#fa7268"></path><path d="M0 390L21.5 398.3C43 406.7 86 423.3 128.8 426.8C171.7 430.3 214.3 420.7 257.2 417C300 413.3 343 415.7 385.8 408.2C428.7 400.7 471.3 383.3 514.2 373.5C557 363.7 600 361.3 642.8 363.7C685.7 366 728.3 373 771.2 375.5C814 378 857 376 878.5 375L900 374L900 601L878.5 601C857 601 814 601 771.2 601C728.3 601 685.7 601 642.8 601C600 601 557 601 514.2 601C471.3 601 428.7 601 385.8 601C343 601 300 601 257.2 601C214.3 601 171.7 601 128.8 601C86 601 43 601 21.5 601L0 601Z" fill="#f16367"></path><path d="M0 428L21.5 425C43 422 86 416 128.8 415.8C171.7 415.7 214.3 421.3 257.2 423.3C300 425.3 343 423.7 385.8 431.3C428.7 439 471.3 456 514.2 464.2C557 472.3 600 471.7 642.8 468.2C685.7 464.7 728.3 458.3 771.2 455.2C814 452 857 452 878.5 452L900 452L900 601L878.5 601C857 601 814 601 771.2 601C728.3 601 685.7 601 642.8 601C600 601 557 601 514.2 601C471.3 601 428.7 601 385.8 601C343 601 300 601 257.2 601C214.3 601 171.7 601 128.8 601C86 601 43 601 21.5 601L0 601Z" fill="#e85467"></path><path d="M0 502L21.5 502C43 502 86 502 128.8 490.7C171.7 479.3 214.3 456.7 257.2 447.7C300 438.7 343 443.3 385.8 450.5C428.7 457.7 471.3 467.3 514.2 477.5C557 487.7 600 498.3 642.8 498.5C685.7 498.7 728.3 488.3 771.2 479.3C814 470.3 857 462.7 878.5 458.8L900 455L900 601L878.5 601C857 601 814 601 771.2 601C728.3 601 685.7 601 642.8 601C600 601 557 601 514.2 601C471.3 601 428.7 601 385.8 601C343 601 300 601 257.2 601C214.3 601 171.7 601 128.8 601C86 601 43 601 21.5 601L0 601Z" fill="#de4467"></path><path d="M0 528L21.5 530.2C43 532.3 86 536.7 128.8 533.7C171.7 530.7 214.3 520.3 257.2 517.5C300 514.7 343 519.3 385.8 516.2C428.7 513 471.3 502 514.2 499.3C557 496.7 600 502.3 642.8 502.2C685.7 502 728.3 496 771.2 493.7C814 491.3 857 492.7 878.5 493.3L900 494L900 601L878.5 601C857 601 814 601 771.2 601C728.3 601 685.7 601 642.8 601C600 601 557 601 514.2 601C471.3 601 428.7 601 385.8 601C343 601 300 601 257.2 601C214.3 601 171.7 601 128.8 601C86 601 43 601 21.5 601L0 601Z" fill="#d23467"></path><path d="M0 550L21.5 552.5C43 555 86 560 128.8 561.5C171.7 563 214.3 561 257.2 554.3C300 547.7 343 536.3 385.8 532.8C428.7 529.3 471.3 533.7 514.2 534.7C557 535.7 600 533.3 642.8 533.5C685.7 533.7 728.3 536.3 771.2 541C814 545.7 857 552.3 878.5 555.7L900 559L900 601L878.5 601C857 601 814 601 771.2 601C728.3 601 685.7 601 642.8 601C600 601 557 601 514.2 601C471.3 601 428.7 601 385.8 601C343 601 300 601 257.2 601C214.3 601 171.7 601 128.8 601C86 601 43 601 21.5 601L0 601Z" fill="#c62368"></path></svg>